<svg xmlns="http://www.w3.org/2000/svg" xmlns:xlink="http://www.w3.org/1999/xlink" width="79" height="79" viewBox="0 0 79 79"><defs><style>.a{fill:#fff;}.b{fill:#7265f0;}.c{clip-path:url(#a);}</style><clipPath id="a"><rect class="a" width="52" height="52" transform="translate(-0.043 -0.043)"/></clipPath></defs><g transform="translate(-904 -1168)"><path class="b" d="M39.5,0A39.5,39.5,0,1,1,0,39.5,39.5,39.5,0,0,1,39.5,0Z" transform="translate(904 1168)"/><g class="c" transform="translate(916.043 1182.043)"><g transform="translate(10.408 9.368)"><path class="a" d="M-329.415,330.557h-12.32a23.224,23.224,0,0,1,.165,3.215h8.946v16.355h-29.4V333.772h8.5a23.228,23.228,0,0,1,.165-3.215h-11.88v22.781h12.469v3.285l-3.409,2.934h16.28l-3.409-2.934v-3.285h13.886Z" transform="translate(365.236 -326.835)"/><path class="a" d="M-336.237,348.382c0-3.319-4.3-6.066-9.884-6.522V340.5a7.363,7.363,0,0,0,3.295-6.118c0-4.094,0-7.414-4.942-7.414s-4.942,3.318-4.942,7.414a7.363,7.363,0,0,0,3.295,6.118v1.36c-5.587.456-9.884,3.2-9.884,6.522Z" transform="translate(365.456 -326.968)"/></g></g></g></svg>